<svg width="107" height="234" xmlns="http://www.w3.org/2000/svg"><g fill="none" fill-rule="evenodd"><path fill="#A6ABAC" d="M98.0422 168.7986h-1.6415V146.952h1.6415zM107.3795 168.7986h-1.6415V146.952h1.6415z"/><g transform="matrix(-1 0 0 1 155 0)"><path d="M65.1544 172.3966c0-3.1956-2.589-5.7886-5.7844-5.7886H47.8032c-3.1961 0-5.7851 2.593-5.7851 5.7886 0 3.1949 2.589 5.7858 5.785 5.7858H59.37c3.1954 0 5.7844-2.5909 5.7844-5.7858zM60.7104 147.1744c0 1.1586-.938 2.097-2.0947 2.097h-10.77c-1.1554 0-2.0927-.9384-2.0927-2.097 0-1.156.9373-2.0944 2.0927-2.0944h10.77c1.1567 0 2.0947.9384 2.0947 2.0944" fill="#484B4D"/><path d="M41.3796 231.192h112.15c.6793 0 1.229.5675 1.229 1.2668 0 .6992-.5497 1.2667-1.229 1.2667h-112.15c-.678 0-1.229-.5675-1.229-1.2667 0-.6993.551-1.2668 1.229-1.2668z" fill="#DBDEDF"/><path d="M18.9693 231.192h53.1652c.6793 0 1.229.5675 1.229 1.2668 0 .6992-.5497 1.2667-1.229 1.2667H18.9693c-.6787 0-1.2283-.5675-1.2283-1.2667 0-.6993.5496-1.2668 1.2283-1.2668z" fill="#DBDEDF"/><path d="M77.135 230.9783c0-1.4316-1.1608-2.5943-2.5917-2.5943h-8.2431c-1.4323 0-.7995 1.1627-.7995 2.5943 0 1.433-.6328 2.5957.7995 2.5957h8.2431c1.431 0 2.5917-1.1627 2.5917-2.5957" fill="#484B4D"/><path d="M72.236 227.5858c0 3.4374-2.7856 6.2216-6.22 6.2216H37.9655c-3.4331 0-6.2186-2.7842-6.2186-6.2216v-51.0122c0-3.436 2.7855-6.2216 6.2186-6.2216H66.016c3.4345 0 6.22 2.7855 6.22 6.2216v51.0122z" fill="#858989"/><path d="M61.624 199.368l-29.877 14.366v13.8155c0 3.4374 2.7855 6.2216 6.2186 6.2216h26.6275L61.624 199.368z" fill="#707473"/><path d="M76.146 54.1763c-4.5332.454-19.3089 1.3606-25.2014 2.5389-5.8931 1.1782-8.8117 12.4378-7.9054 18.2413.9048 5.8048-1.7125 8.8713-1.7125 8.8713l.3896 1.0898 39.4321-3.8915" fill="#642A15"/><path d="M62.1182 106.3983c1.9887-.1689 3.1562.098 3.7113.6662l25.067-3.4334-9.8902-48.205-4.7485 1.6106c-.8252-.4297-1.9056-1.2796-9.857-.0034-7.9507 1.277-10.3338.4074-15.0938 3.4017-3.0928 1.945-5.9823 6.6662-5.1659 16.0523.815 9.3869 2.2656 20.4972 2.2656 20.4972 1.774 5.2771 6.2335 10.0448 13.7115 9.4138" fill="#933B20"/><path d="M54.239 60.1722c-2.2777-2.6578-3.9503-3.0057-5.388-2.553.6503-.4412 1.3472-.7547 2.0934-.904 5.8931-1.1783 20.6688-2.085 25.2013-2.539l1.277 6.8547c-8.9326.8675-21.141 1.5269-23.1837-.8587" fill="#933B20"/><path d="M70.3428 60.8874l-6.3097-5.7108c5.0051-.4331 9.8428-.7736 12.113-1.0006l.9772 5.248-6.7805 1.4634z" fill="#642A15"/><path d="M88.7046 58.957V39.4915c0-2.8727-2.0718-5.1995-4.627-5.1995h-5.2057c-2.556 0-4.6277 2.3268-4.6277 5.1995V58.957h14.4604z" fill="#F49F63"/><path d="M48.267 95.9014L61.2798 78.121l5.8013 22.1294-2.8963 6.1588c-.5591-.073-1.237-.0818-2.0663-.0108-7.478.631-11.9376-4.1368-13.7115-9.4132 0 0-.0513-.3898-.1398-1.0837" fill="#642A15"/><path d="M74.2033 58.2616l3.144-.1243.021.5492c-4.3731 1.6985-7.4092 6.3602-7.1971 11.7177l1.5828 39.9478c.2614 6.6067 5.3651 11.7683 11.402 11.5285l-6.4218.256c-6.0377.2399-11.142-4.9231-11.4034-11.5312L63.7486 70.659c-.2627-6.6074 4.4184-12.1582 10.4547-12.3973" fill="#061420"/><path fill="#0B7DB5" d="M81.812 224.8863l.5895-57.5411.497-53.7727H68.4571l-.4977 53.9564.4977 57.3574z"/><path fill="#094D6F" d="M96.6147 224.8863l6.5265-60.9043-5.8904-51.3412-15.079.9317 6.5273 51.4979-5.4387 59.816z"/><path d="M63.937 107.648v1.1268c0 11.7772 7.9912 27.8025 17.8475 27.8025h7.2842c9.855 0 9.9826-16.0483 9.9826-27.8025v-1.1269H63.937z" fill="#0B7DB5"/><path d="M82.4754 113.3193c-.2863-.148-14.2571 3.8901-14.2571 3.8901s-.4275 2.8896-.5794 5.8717c.7219 2.197 1.5963 4.1421 2.5843 5.723.0526-.0513 2.8787-2.6193 2.9449-2.6652 6.1423-4.2469 13.4434-8.2593 13.4434-8.2593l-4.1361-4.5603z" fill="#094D6F"/><path d="M128.3375 84.5613s-.516-2.7106-2.6876-4.3057c-2.1724-1.595-4.9883 4.6604-4.9883 4.6604" fill="#858989"/><path d="M128.3375 84.5613s-.516-2.7106-2.6876-4.3057c-2.1724-1.595-4.9883 4.6604-4.9883 4.6604" fill="#858989"/><path d="M107.5912 106.042c.5342.1676 1.1.2494 1.6747.2352a5.2 5.2 0 0 0 4.4487-2.72l14.7602-24.5312 5.6643-6.7695c2.0528-2.0147 2.6052-6.1899 1.021-8.1728-1.7922-2.249-4.5115-2.4268-6.5644-.4108l-7.3092 7.2141c-1.0203.656-.7104 2.9795-1.0784 4.1354l-11.8876 15.0173-12.0138-20.1532c-1.4917-2.4565-4.6925-3.2409-7.1498-1.7471-2.456 1.4903-3.2393 4.6927-1.7477 7.1506l17.2844 28.4854c.6658 1.0979 1.7064 1.8944 2.8976 2.2667" fill="#F49F63"/><path d="M98.1571 69.76c-1.312 1.2087-6.0653 5.9933-8.6327 8.747l14.821 25.1217c.6962 1.1492 1.8502 2.1862 3.0955 2.5754a5.4218 5.4218 0 0 0 1.753.2446c1.9454-.0453 3.8747-1.3607 5.1672-3.0619l13.9762-18.8257c-7.4132.433-9.5687-5.2095-10.2372-7.0208l-9.0447 10.5029L98.1571 69.76z" fill="#CBE8F3"/><path d="M124.4098 70.4488c-.4443.7115-1.3134.9675-1.94.5743l-5.7041-3.6672c-.6267-.3959-.7746-1.2904-.3275-2.0004l9.861-15.749c.445-.7108 1.3141-.9655 1.9394-.5696l5.7054 3.6638c.6267.3946.7732 1.2911.3296 1.9985l-9.8638 15.7496z" fill="#F6C483"/><path d="M122.5528 69.4935l4.2617 4.6725s-6.3861.2114-8.1337 2.8807c0 0 .6037-6.4419 3.872-7.5532" fill="#DE5A49"/><path d="M125.4293 71.8092c-.4747.7587-1.4045 1.0344-2.073.6121l-6.0978-3.9191c-.6699-.423-.8265-1.379-.3505-2.1363l10.5418-16.8333c.4747-.76 1.4032-1.0303 2.073-.6094l6.0992 3.9178c.6685.4236.8252 1.3789.349 2.1349l-10.5417 16.8333z" fill="#3C3A50"/><path d="M127.1545 72.8385c-.476.7587-1.4046 1.0317-2.0731.6094l-6.0991-3.9185c-.6685-.4202-.8252-1.3769-.3505-2.1342l10.5418-16.8334c.476-.7573 1.4045-1.0316 2.0737-.6093l6.0971 3.9178c.6685.4182.8265 1.3748.3491 2.1362l-10.539 16.832z" fill="#4F4D7C"/><path d="M133.0644 70.755a2.0128 2.0128 0 0 1-.6226-.1c-1.0575-.3446-1.6355-1.4796-1.2925-2.5376.522-1.6073 1.1264-4.4063.8374-5.5987-.2316-.9648-2.2311-2.6687-3.525-3.4774-.942-.5884-1.2283-1.8315-.6388-2.7733.5896-.9438 1.8294-1.2316 2.7727-.6405.761.4756 4.5912 2.9984 5.303 5.9433.6557 2.7132-.653 6.9689-.9218 7.7931-.2768.85-1.0656 1.391-1.9124 1.391" fill="#F49F63"/><path d="M130.9107 71.8251c-.0554 0-.1107-.004-.1675-.008-1.1067-.09-1.9306-1.0621-1.84-2.1708.1107-1.3667.0397-2.9895-.1487-3.4962-.5105-.5649-2.5566-2.1343-4.2447-3.3166-.9096-.6384-1.1311-1.893-.493-2.8037.6368-.9121 1.8928-1.1324 2.8024-.4946.967.677 4.1941 2.9794 5.1416 4.1746 1.1587 1.4545 1.096 4.5515.9535 6.2682-.0872 1.0513-.967 1.8471-2.0036 1.8471" fill="#F49F63"/><path d="M128.8005 74.5803a1.735 1.735 0 0 1-.1675-.0068c-1.1081-.0912-1.9306-1.062-1.8415-2.1707.1108-1.3721.0399-3.003-.1499-3.5043-.4936-.5675-2.0812-1.8775-3.3372-2.82-.8887-.6661-1.071-1.9282-.4045-2.8173.6658-.889 1.9266-1.0728 2.8173-.4053.522.3911 3.1819 2.4072 4.132 3.6063 1.16 1.4607 1.096 4.557.9535 6.271-.0865 1.0526-.967 1.8471-2.0022 1.8471" fill="#F49F63"/><path d="M127.5145 77.4041h-.025c-1.1121-.0155-2.0008-.9276-1.9873-2.039.0182-1.5768-.1681-3.4145-.3944-3.9374-.48-.5553-2.0839-1.8802-3.3486-2.8287-.8894-.6668-1.0697-1.9282-.4039-2.8186.6659-.8891 1.9266-1.0715 2.816-.404.5233.3904 3.1812 2.4058 4.132 3.601 1.1182 1.4106 1.2465 4.64 1.2236 6.4384-.0142 1.1026-.9137 1.9883-2.0124 1.9883" fill="#F49F63"/><path d="M91.6078 65.7945c-1.8017 1.7262-2.2372 4.5252-.888 6.746l18.0623 29.7698c.6989 1.1492 1.7834 1.9835 3.0306 2.3713.3458.1095.7057.1703 1.071.2074-.9663.9222-2.2446 1.479-3.6201 1.5107a5.4608 5.4608 0 0 1-1.7504-.244 5.4478 5.4478 0 0 1-3.0292-2.3713L86.4203 74.014c-1.5579-2.5686-.7415-5.9162 1.8266-7.4748 1.0514-.6385 2.2264-.858 3.3609-.7446z" fill="#7FBEDE"/><path d="M83.3762 232.4617V228.6155c0-2.4517 1.2857-4.4394 2.9435-4.4394h8.1155c5.2915 0 16.3782 2.6383 16.3782 7.2432 0 .3533-.0399.702-.0993 1.0424H83.3762z" fill="#933B20"/><mask id="a" fill="#fff"><path d="M0 233.7589h137.9698V.0953H0z"/></mask><path fill="#DC937E" mask="url(#a)" d="M83.3764 233.688h27.4426v-2.585H83.3764z"/><path d="M83.3762 228.6153c0-2.4045 1.2385-4.3468 2.8477-4.4245 4.0131.1493 11.6958 2.7578 11.6958 7.2283 0 .354-.029.702-.0723 1.0424H83.3762V228.6153z" fill="#642A15" mask="url(#a)"/><path fill="#A94A2D" mask="url(#a)" d="M83.3764 233.688H97.924v-2.585H83.3764z"/><path d="M66.5075 232.4617V228.6155c0-2.4517 1.2857-4.4394 2.9421-4.4394h8.1169c5.2908 0 16.3781 2.6383 16.3781 7.2432 0 .3533-.0398.702-.0992 1.0424h-27.338z" fill="#933B20" mask="url(#a)"/><path fill="#DC937E" mask="url(#a)" d="M66.5073 233.688h27.4413v-2.585H66.5073z"/><path fill="#53B7E7" mask="url(#a)" d="M67.6533 225.0591h15.2295v-5.5777H67.6533z"/><path fill="#0B7DB5" mask="url(#a)" d="M82.6113 225.0591h15.2295v-5.5777H82.6113z"/><path d="M99.8453 118.6397c.0777-.7256 0-2.2316-.0263-2.9085l-1.36-44.0906c-1.171-9.253-4.344-14.1694-10.662-13.9188l-14.7136.5844c-6.3185.2493-11.1852 6.8642-10.8726 14.7721l1.7726 46.3768 35.862-.8154z" fill="#CBE8F3" mask="url(#a)"/><path d="M90.6763 58.032c-.8799-.2378-1.832-.3513-2.8794-.3101l-14.7136.5844c-.2877.0108-.5686.05-.8502.0871.4876 4.6847 8.497 10.1159 13.436 9.9443 3.8754-.1358 4.9809-5.5501 5.0072-10.3057M69.8192 112.5817l1.7308 12.3466 2.9671 4.9245-9.992 3.3767-2.04-14.4708" fill="#F49F63" mask="url(#a)"/><path d="M77.7406 58.1217l-4.6567.1845c-.2877.0108-.5686.0506-.8509.0871.4275 4.1057 6.6326 8.7829 11.4851 9.7611-3.552-2.622-5.2942-6.9188-5.9775-10.0327" fill="#DE5A49" mask="url(#a)"/><path d="M77.3752 55.2781v-6.2588l-3.1312-3.3922v13.2283h3.6708c-.3829-1.4755-.5396-2.755-.5396-3.5773" fill="#DE5A49" mask="url(#a)"/><path d="M72.6615 76.7822l.0293-.146c-.0133 0-.0222.0587-.0293.146" fill="#858989" mask="url(#a)"/><path d="M77.3977 108.47c-3.313-8.0268-4.8654-30.0563-4.7364-31.723l-4.4197 22.018c.3633 2.1768-.0905 16.4165.2721 17.596.1675.5419.5841 1.7749 1.0561 2.9673l13.9121-.3162c-1.406-1.3924-3.5189-4.33-6.0842-10.5421" fill="#7FBEDE" mask="url(#a)"/><path d="M66.4283 61.3084c-2.221 1.2242-6.5272 3.8097-6.5272 15.3274v48.9752s6.3442 1.2695 11.5027-2.8118l-.1283-36.578" fill="#CBE8F3" mask="url(#a)"/><path d="M63.7153 127.499s-.765 3.5733 1.6247 8.6322c2.3581 4.9894 3.9896 6.6216 3.9896 6.6216l7.977-7.414-3.4858-7.1128s-1.6233 1.7066-5.2266 3.5429c-3.6033 1.837-4.1313-1.7532-4.8789-4.2698" fill="#0B7DB5" mask="url(#a)"/><path d="M101.668 89.4106c0-4.1671-.2147-25.3601-6.0288-29.7211-1.7537-1.3154-4.1651-1.4256-4.1651-1.4256 4.3987 1.4337 8.0033 21.385 7.7832 37.5068 0 0 2.4107-2.193 2.4107-6.36M73.822 93.2663c.2715-4.988.5619-32.054-7.3578-34.6328l-.842 2.5862c4.3987 1.433 5.752 21.7963 5.6622 36.5806 0 0 2.2662.454 2.5377-4.534" fill="#933B20" mask="url(#a)"/><path d="M38.3714 224.783c0 .7986-.6476 1.4465-1.4457 1.4465-.7975 0-1.4438-.6479-1.4438-1.4464v-47.37c0-.7999.6463-1.4451 1.4438-1.4451.7981 0 1.4457.6452 1.4457 1.4451v47.37zM43.9752 224.783c0 .7986-.6476 1.4465-1.4458 1.4465-.7975 0-1.445-.6479-1.445-1.4464v-47.37c0-.7999.6475-1.4451 1.445-1.4451.7982 0 1.4458.6452 1.4458 1.4451v47.37zM49.5776 224.783c0 .7986-.6476 1.4465-1.4458 1.4465-.7975 0-1.445-.6479-1.445-1.4464v-47.37c0-.7999.6475-1.4451 1.445-1.4451.7982 0 1.4458.6452 1.4458 1.4451v47.37zM55.18 224.783c0 .7986-.6462 1.4465-1.4471 1.4465-.7962 0-1.4437-.6479-1.4437-1.4464v-47.37c0-.7999.6475-1.4451 1.4437-1.4451.8009 0 1.4471.6452 1.4471 1.4451v47.37z" fill="#A6ABAC" mask="url(#a)"/><path d="M77.3752 55.3797V49.121l-3.1312-3.3922V58.957h3.6708c-.3829-1.4755-.5396-2.7564-.5396-3.5773" fill="#DE5A49" mask="url(#a)"/><path d="M66.9453 31.0039c0 1.7667 1.3573 3.1956 3.051 3.1956h.6435c1.6922 0 3.065-1.433 3.065-3.197l-.0013-1.2005c-.0014-1.7647-1.3729-3.1963-3.0664-3.1963h-.6294c-1.6936.0027-3.065 1.4343-3.0637 3.199l.0013 1.1992z" fill="#F49F63" mask="url(#a)"/><path d="M70.67 29.1565c1.4835 0 2.7166 1.081 3.0178 2.52-.2972 1.4424-1.5343 2.526-3.0158 2.526l-.6328.0014c-1.4836 0-2.722-1.081-3.0198-2.5234.2964-1.4417 1.5349-2.524 3.0165-2.524h.634z" fill="#DE5A49" mask="url(#a)"/><path d="M89.9298 31.0039c0 1.7653 1.3574 3.1949 3.051 3.1949h.6435c1.6922 0 3.0637-1.4336 3.0637-3.1963l-.0013-1.2005c0-1.7647-1.3715-3.1963-3.0651-3.1963h-.6294c-1.6936.0027-3.0664 1.4343-3.0637 3.1976l.0013 1.2006z" fill="#F49F63" mask="url(#a)"/><path d="M93.6544 29.1552c1.4836 0 2.7166 1.0823 3.0178 2.5214-.2971 1.441-1.5342 2.5247-3.0164 2.5247l-.6335.0027c-1.4822 0-2.7206-1.081-3.0198-2.5247.2978-1.4418 1.5363-2.524 3.0178-2.524h.6341z" fill="#DE5A49" mask="url(#a)"/><path d="M92.536 41.1868c0 5.1933-3.003 9.403-7.8724 9.403h-5.6953c-4.8694 0-7.873-4.2097-7.873-9.403l-.9448-23.9961c0-5.1934 3.9484-9.403 8.8178-9.403h5.6953c4.8694 0 8.8177 4.2096 8.8177 9.403l-.9454 23.996z" fill="#F49F63" mask="url(#a)"/><path d="M91.275 38.644c-.7137 5.644-2.9347 10.2712-7.403 11.946h.7914c4.8695 0 7.8724-4.2097 7.8724-9.403l.8677-22.0065-2.1284 19.4635z" fill="#F9D488" mask="url(#a)"/><path d="M79.7083 34.234v.025c0 .9439.7266 1.7087 1.6288 1.7087h.9575c.9022 0 1.6288-.7648 1.6288-1.7086v-.025h-4.215z" fill="#DE5A49" mask="url(#a)"/><path d="M75.7886 38.4448c0 3.1604 2.8976 5.5433 6.0856 5.5433 3.186 0 5.9694-2.4808 5.9694-5.5433h-12.055z" fill="#9D3538" mask="url(#a)"/><path d="M77.7775 39.924h8.2195c.7158 0 1.2843-.1278 1.7287-.4142.0756-.346.1175-.6993.1175-1.0648H75.7888c0 .3216.0365.633.0945.9391.466.3736 1.0859.5398 1.8942.5398" fill="#FEFEFE" mask="url(#a)"/><path d="M85.53 42.7663c-.9205-.5426-2.2433-.8804-3.714-.8804-1.4708 0-2.7937.3378-3.7141.8777 1.0487.7708 2.3304 1.2248 3.7147 1.2248s2.666-.454 3.7133-1.2221" fill="#E94C55" mask="url(#a)"/><path d="M92.1822 11.2789s-5.261 3.9442-12.4278 5.1102c0 0 2.2541-2.3456 3.0266-3.226 0 0-5.6723.9736-7.6036.908-1.932-.0648-2.6795 4.2172-2.8051 8.1114-.1242 3.8935 0 5.2568 0 5.2568s-1.6274.1804-2.1737.4817c0 0-1.0143-3.7212-1.2236-5.4865-.3086-2.6065-.8617-4.3536-.3194-7.8499l-2.0373.5432s1.1959-3.2166 2.2547-3.4767c0 0-1.2985-.4344-2.0467-.2391 0 0 4.1887-6.4987 11.1305-6.5473l-.9116-.7891 3.5756-.1912s-2.1818-1.4282-3.0536-1.4282c0 0 13.5454-6.8284 16.8056 8.4362 0 0 4.5966 1.6627 3.8484 4.7766-.7475 3.1138-2.2905 11.8994-2.2905 11.8994l-.8644-.129s-2.252-.975-2.252-4.1544c0-2.5436.1897-7.9093.002-9.9199-.187-2.014-.634-2.0862-.634-2.0862" fill="#642A15" mask="url(#a)" transform="matrix(-1 0 0 1 164.9218 0)"/><path d="M91.412 8.6398s-2.402-4.3982-5.6649-5.1252c0 0 1.1331 1.8593 1.1777 3.039 0 0-2.5384-.9986-5.2118-1.0885 0 0 .5895.6797.861 1.9505 0 0-3.9882-.5452-7.2066 1.2242 0 0 8.1128-.0473 9.6085 1.6322 1.4958 1.6769 3.627-3.0402 6.4361-1.6322" fill="#933B20" mask="url(#a)" transform="matrix(-1 0 0 1 166.7794 0)"/><path d="M89.4168 25.0818c-1.1696-2.1775-4.1003-1.787-4.2246-1.7593l-.324-1.191c.1566-.0345 3.9455-.4696 5.5061 2.4382l-.9575.512zM74.2164 25.0818c1.1696-2.1775 4.1003-1.787 4.2246-1.7593l.324-1.191c-.1566-.0345-3.9456-.4696-5.5075 2.4382l.959.512z" fill="#933B20" mask="url(#a)"/><path d="M87.6138 26.2562h-1.1952c-1.0548 0-1.911.9566-1.911 2.1362v.8277h5.0159v-.8277c0-1.1796-.8555-2.1362-1.9097-2.1362" fill="#FEFEFE" mask="url(#a)"/><path d="M86.134 27.9636c0 .4817.4039.875.8982.875.4956 0 .9008-.3933.9008-.875 0-.4844-.4052-.8762-.9008-.8762-.4943 0-.8982.3918-.8982.8762" fill="#0B7DB5" mask="url(#a)"/><path d="M76.0193 26.2562h1.1953c1.0548 0 1.911.9566 1.911 2.1362v.8277h-5.0159v-.8277c0-1.1796.8549-2.1362 1.9096-2.1362" fill="#FEFEFE" mask="url(#a)"/><path d="M77.4992 27.9636c0 .4817-.4038.875-.8981.875-.4963 0-.9008-.3933-.9008-.875 0-.4844.4045-.8762.9008-.8762.4943 0 .8981.3918.8981.8762" fill="#0B7DB5" mask="url(#a)"/><path d="M72.1884 227.5858v-51.0122c0-3.436-2.7856-6.2216-6.22-6.2216h-.9245c-3.4344 0-6.2186 2.7855-6.2186 6.2216v51.0122c0 3.4374 2.7842 6.2216 6.2186 6.2216h.9245c3.4344 0 6.22-2.7842 6.22-6.2216" fill="#A6ABAC" mask="url(#a)"/></g></g></svg>
