<svg width="118" height="221" viewBox="0 0 118 221" xmlns="http://www.w3.org/2000/svg"><g id="Page-1" fill="none" fill-rule="evenodd"><g id="MOBILE_NAV_EVOLUTION"><g id="Group-5"><g id="Group-6"><g id="Page-1"><path id="Fill-1" fill="#A5AAAC" d="M24.6 160.5H27v-21h-2.4z"/><path id="Fill-2" fill="#A5AAAC" d="M16 160.5h2.4v-21H16z"/><g id="Group-31"><path d="M32 163c0-3-2.5-5.5-5.6-5.5h-11c-3 0-5.6 2.4-5.6 5.5 0 3 2.5 5.5 5.6 5.5h11c3 0 5.6-2.5 5.6-5.5" id="Fill-3" fill="#484B4D"/><path d="M28 138.7c0 1-1 2-2 2H15.6c-1 0-2-1-2-2s1-2 2-2H26c1 0 2 1 2 2" id="Fill-5" fill="#484B4D"/><path d="M43.2 218.4c0-1.4-1-2.5-2.5-2.5h-8c-1.3 0-.7 1-.7 2.4s-.6 2.5.8 2.5h8c1.3 0 2.4-1.2 2.4-2.6" id="Fill-11" fill="#484B4D"/><path d="M39 215c0 3.2-2.7 6-6 6H6C3 221 .3 218 .3 215v-48.5c0-3.2 2.6-6 6-6H33c3.3 0 6 2.8 6 6V215z" id="Fill-13" fill="#868989"/><path d="M28.8 188.2L.2 201.8v13c0 3.4 2.6 6 6 6h25.4l-2.8-32.6z" id="Fill-15" fill="#707373"/><path d="M59 50.5C55 51 40.7 51.8 35 53c-5.7 1-8.5 11.7-7.6 17.2 1 5.6-1.6 8.5-1.6 8.5l.3 1L64 76" id="Fill-17" fill="#642A16"/><path d="M45.7 100c2 0 3 .2 3.6.7l24-3.2-9.5-45.8-4.6 1.5c-.7-.4-1.8-1.2-9.4 0-7.6 1.2-10 .4-14.5 3.3-3 1.8-5.7 6.3-5 15.2l2.2 19.5c1.8 5 6 9.5 13.2 9" id="Fill-19" fill="#933A20"/><path d="M38 56.2c-2-2.5-3.6-2.8-5-2.4l2-1c5.6-1 19.8-2 24-2.3l1.4 6.5c-8.6.8-20.3 1.5-22.3-.8" id="Fill-21" fill="#933A20"/><path d="M53.6 57l-6-5.5 11.5-1 1 5-6.4 1.4z" id="Fill-23" fill="#642A16"/><path d="M71.2 55V36.7c0-2.8-2-5-4.5-5h-5c-2.4 0-4.4 2.2-4.4 5V55h14z" id="Fill-25" fill="#F49F63"/><path d="M32.4 90L45 73.3l5.5 21-2.8 6c-.6-.2-1.2-.2-2 0-7.2.5-11.4-4-13.2-9v-1" id="Fill-27" fill="#642A16"/><path d="M57.3 54.4h3v.4c-4.2 1.6-7 6-7 11l1.6 38c.2 6.3 5 11.2 11 11l-6.3.2c-5.8.3-10.7-4.6-11-11l-1.4-37.8c-.3-6.3 4.2-11.6 10-11.8" id="Fill-29" fill="#071420"/></g><path id="Fill-32" fill="#027DB5" d="M65.6 213.3l.6-55 .5-51.4H52.4l-.5 51.5.4 54.8z"/><path id="Fill-33" fill="#0E4D6F" d="M78.5 212.5l6-57.7-5.4-48.6-14 .8 6.2 48.8-5 56.7z"/><g id="Group-66"><path d="M46.7 101.7v1c0 11.3 7.7 26.5 17.2 26.5h7c9.4 0 9.5-15.3 9.5-26.4v-1H46.7z" id="Fill-34" fill="#027DB5"/><path d="M64.6 107L50.8 111s-.4 2.7-.5 5.6c.7 2 1.5 4 2.5 5.4l2.8-2.5c6-4 13-8 13-8l-4-4.2z" id="Fill-36" fill="#0E4D6F"/><path d="M108.7 79.8s-.4-2.6-2.5-4c-2-1.6-4.8 4.3-4.8 4.3" id="Fill-38" fill="#868989"/><path d="M108.7 79.8s-.4-2.6-2.5-4c-2-1.6-4.8 4.3-4.8 4.3" id="Fill-40" fill="#868989"/><path d="M88.8 100.2l1.6.2c1.8 0 3.4-1 4.3-2.6L109 74.5l5.3-6.4c2-1.8 2.5-5.8 1-7.7-1.7-2-4.3-2.3-6.3-.4l-7 6.8c-1 .6-.7 2.8-1 4L89.4 85 78 65.8c-1.5-2.3-4.6-3-7-1.6-2.4 1.4-3 4.4-1.7 6.8L86 98c.6 1 1.6 1.8 2.8 2.2" id="Fill-42" fill="#F49F63"/><path d="M79.7 65.7c-1.3 1.2-6 5.7-8.3 8.3l14.2 24c.7 1 1.8 2 3 2.3.6.2 1 .3 1.7.3 2 0 3.7-1.3 5-3L108.7 80c-7 .4-9.2-5-9.8-6.7L90 83 79.7 65.8z" id="Fill-44" fill="#9DD4CF"/><path d="M105 66.4c-.5.6-1.3 1-2 .5l-5.4-3.6c-.6-.4-.7-1.2-.3-2l9.5-14.8c.4-.7 1.3-1 2-.6l5.3 3.5c.8.4 1 1.2.5 2l-9.5 15z" id="Fill-46" fill="#F5C483"/><path d="M103.2 65.5l4 4.4s-6 0-7.8 2.6c0 0 .6-6 3.8-7" id="Fill-48" fill="#DE5949"/><path d="M106 67.7c-.5.7-1.4 1-2 .5l-6-3.7c-.6-.4-.7-1.3-.3-2l10.2-16c.4-.7 1.2-1 2-.6l5.8 3.6c.6.4.8 1.3.3 2l-10 16z" id="Fill-50" fill="#3D3A50"/><path d="M107.6 68.6c-.5.8-1.3 1-2 .6l-6-3.7c-.5-.4-.7-1.3-.2-2l10.2-16c.4-.8 1.3-1 2-.6l5.8 3.6c.7.4.8 1.3.4 2l-10.2 16z" id="Fill-52" fill="#504D7C"/><path d="M113.3 66.7h-.6c-1-.5-1.6-1.5-1.2-2.6.5-1.4 1-4 .8-5.2-.3-1-2.2-2.5-3.4-3.3-1-.5-1.3-1.7-.7-2.6.5-1 1.7-1.3 2.6-.7.7.4 4.3 2.8 5 5.6.7 2.5-.6 6.5-1 7.3 0 .8-1 1.4-1.7 1.4" id="Fill-54" fill="#F49F63"/><path d="M111.2 67.7c-1.2 0-2-1-2-2 .2-1.4 0-3 0-3.4-.5-.6-2.5-2-4-3.2-1-.5-1.2-1.7-.6-2.5.6-1 1.8-1 2.7-.5 1 .6 4 2.8 5 4 1 1.3 1 4.3 1 6-.2 1-1 1.7-2 1.7" id="Fill-56" fill="#F49F63"/><path d="M109.2 70.3h-.2c-1 0-1.8-1-1.7-2 0-1.4 0-3-.2-3.4-.4-.6-2-2-3-2.8-1-.6-1-1.8-.5-2.7.7-.8 2-1 2.7-.4.5.5 3 2.4 4 3.6 1 1.4 1 4.3 1 6-.2 1-1 1.7-2 1.7" id="Fill-58" fill="#F49F63"/><path d="M108 73c-1 0-2-1-2-2 0-1.5 0-3.2-.4-3.7s-2-1.8-3.2-2.7c-.8-.6-1-1.8-.4-2.7.7-1 2-1 2.7-.5.5.4 3 2.3 4 3.5 1 1.3 1.2 4.4 1.2 6 0 1-1 2-2 2" id="Fill-60" fill="#F49F63"/><path d="M70 62.6c1-.6 2.3-.8 3.4-.7-1.8 1.6-2.2 4.2-1 6.4L90 96.6c.6 1 1.6 2 2.8 2.3h1c-1 1-2 1.5-3.4 1.5-.6 0-1.2 0-1.7-.2-1.2-.4-2.3-1.2-3-2.3L68.5 69.8c-1.5-2.5-.7-5.7 1.7-7.2" id="Fill-62" fill="#83B9B4"/><path d="M65.4 220.3v-3.7c0-2.3 1.3-4.2 3-4.2H76c5.2 0 16 2.5 16 7l-.2 1H65.4z" id="Fill-64" fill="#933A20"/></g><path id="Fill-67" fill="#DB937D" d="M66.7 221H93V219H66.8z"/><path d="M66.7 216c0-2.3 1.2-4.2 3-4.2 4 0 11.8 2.6 11.8 6.7v1H66.6V216z" id="Fill-68" fill="#642A16"/><path id="Fill-70" fill="#AA4A2D" d="M66.7 221h14.8V219H66.7z"/><path d="M50.3 219.5V216c0-2.4 1.2-4.2 2.8-4.2h8c5 0 15.8 2.4 15.8 6.8v1H50.2z" id="Fill-71" fill="#933A20"/><path id="Fill-73" fill="#DB937D" d="M50.3 221h26.5V219H50.3z"/><path id="Fill-74" fill="#54B8E8" d="M51 212.5h15V207H51z"/><path id="Fill-75" fill="#027DB5" d="M65 212.5h15V207H65z"/><g id="Group-80"><path d="M80.5 112.3v-2.8L79 67.7c-1-8.8-4-13.5-10-13.2l-13.8.5c-6 .3-10.6 6.5-10.3 14l1.6 44 34-.7z" id="Fill-76" fill="#9DD4CF"/><path d="M71.8 54.8c-.8-.3-2.5-.7-3.5-.6l-13 .8h-1c.5 4.6 8 9.7 12.8 9.5 3.7 0 4.8-5.2 4.8-9.7" id="Fill-78" fill="#F49F63"/></g><path id="Fill-81" fill="#F49F63" d="M52.3 106.2l1.5 11.6 2.7 4.6-9 3.2-2-13.6"/><g id="Group-146"><path d="M61.2 54.3h-4.5c-.3.2-.5.2-.8.2.3 4 6.3 8.4 11 9.3-3.5-2.5-5.2-6.6-5.8-9.5" id="Fill-82" fill="#DE5949"/><path d="M60.8 51.6v-6l-3-3.2V55h3.6c-.4-1.4-.6-2.6-.6-3.4" id="Fill-84" fill="#DE5949"/><path d="M56.3 72" id="Fill-86" fill="#868989"/><path d="M61 102c-3.3-7.5-4.8-28.4-4.7-30L52 93c.4 2 0 15.5.3 16.6l1 2.8 13.4-.3c-1.4-1.2-3.4-4-5.8-10" id="Fill-88" fill="#83B9B4"/><path d="M50.3 57.3C48.3 58.5 44 61 44 72v46.4s6.2 1.2 11-2.7V81" id="Fill-90" fill="#9DD4CF"/><path d="M47.7 120.2s-.7 3.4 1.6 8.2c2.2 4.7 3.8 6.3 3.8 6.3l7.8-7-3.4-6.8s-1.5 1.5-5 3.2c-3.5 1.8-4-1.6-4.7-4" id="Fill-92" fill="#027DB5"/><path d="M82.2 84c0-4-.3-24-5.8-28.2-1.7-1.3-4-1.4-4-1.4 4.2 1.4 7.7 20.3 7.4 35.6 0 0 2.4-2 2.4-6" id="Fill-94" fill="#933A20"/><path d="M57.4 87.7c.3-4.8.6-30.5-7-33l-.8 2.5C53.8 58.6 55 78 55 92c0 0 2.2.4 2.4-4.3" id="Fill-96" fill="#933A20"/><path d="M6.7 213c0 .7-.7 1.3-1.4 1.3-.8 0-1.4-.6-1.4-1.3v-45c0-.8.5-1.4 1.3-1.4.7 0 1.4.6 1.4 1.4v45z" id="Fill-98" fill="#A5AAAC"/><path d="M12.2 213c0 .7-.6 1.3-1.4 1.3-.7 0-1.4-.6-1.4-1.3v-45c0-.8.7-1.4 1.4-1.4.8 0 1.4.6 1.4 1.4v45z" id="Fill-100" fill="#A5AAAC"/><path d="M17.8 213c0 .7-.7 1.3-1.4 1.3-.8 0-1.4-.6-1.4-1.3v-45c0-.8.6-1.4 1.4-1.4.7 0 1.4.6 1.4 1.4v45z" id="Fill-102" fill="#A5AAAC"/><path d="M23.3 213c0 .7-.6 1.3-1.4 1.3-.8 0-1.5-.6-1.5-1.3v-45c0-.8.7-1.4 1.4-1.4s1.3.6 1.3 1.4v45z" id="Fill-104" fill="#A5AAAC"/><path d="M60.8 51.7v-6l-3-3.2V55h3.6c-.4-1.3-.6-2.6-.6-3.3" id="Fill-106" fill="#DE5949"/><path d="M50.8 28.5c0 1.7 1.3 3 3 3h.6c1.6 0 3-1.3 3-3v-1c0-1.8-1.4-3.2-3-3.2h-.6c-1.7 0-3 1.4-3 3v1.2z" id="Fill-108" fill="#F49F63"/><path d="M54.4 26.8c1.4 0 2.6 1 3 2.4-.4 1.3-1.6 2.3-3 2.3h-.6c-1.4 0-2.6-1-3-2.3.4-1.4 1.6-2.4 3-2.4h.6z" id="Fill-110" fill="#DE5949"/><path d="M73 28.5c0 1.7 1.2 3 2.8 3h.6c1.7 0 3-1.3 3-3v-1c0-1.8-1.3-3.2-3-3.2h-.6c-1.6 0-3 1.4-3 3v1.2z" id="Fill-112" fill="#F49F63"/><path d="M76.5 26.8c1.4 0 2.6 1 3 2.3-.4 1.5-1.6 2.5-3 2.5H76c-1.6 0-2.8-1-3-2.3.2-1.4 1.4-2.4 3-2.4h.5z" id="Fill-114" fill="#DE5949"/><path d="M75.4 38.2c0 5-3 9-7.6 9h-5.4c-4.7 0-7.6-4-7.6-9l-1-22.8c0-5 4-9 8.6-9h5.4c4.7 0 8.5 4 8.5 9l-1 22.8z" id="Fill-116" fill="#F49F63"/><path d="M74.2 35.8c-.7 5.3-2.8 9.7-7 11.3h.6c4.7 0 7.6-4 7.6-8.8l.8-21-2 18.6z" id="Fill-118" fill="#F8D488"/><path d="M63 31.6c0 1 .8 1.6 1.6 1.6h1c.8 0 1.5-.7 1.5-1.6h-4z" id="Fill-120" fill="#DE5949"/><path d="M59.3 35.6c0 3 2.8 5.2 6 5.2 3 0 5.6-2.3 5.6-5.2H59.2z" id="Fill-122" fill="#9D3537"/><path d="M61.2 37h8c.6 0 1 0 1.6-.4v-1H59.4v1c.6.2 1 .4 2 .4" id="Fill-124" fill="#FEFEFE"/><path d="M68.7 39.7c-1-.5-2.2-1-3.6-1-1.3 0-2.6.5-3.5 1 1 .7 2.3 1 3.6 1 1.4 0 2.7-.3 3.7-1" id="Fill-126" fill="#E94D55"/><path d="M74 10s-5 3.7-11.8 4.8c0 0 2-2.2 3-3 0 0-5.6 1-7.4.8-2 0-2.6 4-2.7 7.7v5s-1.5.2-2 .5c0 0-1-3.5-1.2-5.2-.3-2.5-.8-4.2-.3-7.5l-2 .6s1.2-3 2.2-3.3c0 0-1.2-.4-2-.2 0 0 4-6 10.7-6l-.8-1H63s-2-1.4-3-1.4c0 0 13-6.5 16.2 8 0 0 4.4 1.6 3.7 4.5-.8 3-2.3 11.5-2.3 11.5l-.8-.2s-2.3-1-2.3-4c0-2.3.2-7.4 0-9.3-.2-2-.6-2-.6-2" id="Fill-128" fill="#642A16"/><path d="M73 8s-2.3-4.2-5.5-4.8c0 0 1 1.7 1.2 2.8 0 0-2.5-1-5-1 0 0 .5.6.8 2 0 0-4-.7-7 1 0 0 7.8 0 9.3 1.6 1.4 1.6 3.5-3 6.2-1.6" id="Fill-130" fill="#933A20"/><path d="M72.4 23c-1-2.2-4-1.8-4-1.8l-.4-1c.2-.2 3.8-.6 5.3 2.2l-1 .5z" id="Fill-132" fill="#933A20"/><path d="M57.8 23c1-2.2 4-1.8 4-1.8l.4-1c-.2-.2-3.8-.6-5.3 2.2l.8.5z" id="Fill-134" fill="#933A20"/><path d="M70.7 24h-1.2c-1 0-1.8 1-1.8 2v.8h4.7V26c0-1-.7-2-1.7-2" id="Fill-136" fill="#FEFEFE"/><path d="M69.2 25.6c0 .5.4 1 1 1 .4 0 .8-.5.8-1 0-.4-.4-.8-1-.8-.4 0-.8.4-.8.8" id="Fill-138" fill="#027DB5"/><path d="M59.5 24h1.2c1 0 1.8 1 1.8 2v.8h-4.7V26c0-1 .7-2 1.7-2" id="Fill-140" fill="#FEFEFE"/><path d="M61 25.6c0 .5-.4 1-1 1-.4 0-.8-.5-.8-1 0-.4.4-.8 1-.8.4 0 .8.4.8.8" id="Fill-142" fill="#027DB5"/><path d="M39.5 215v-48.4c0-3.3-2.7-6-6-6h-1c-3.2 0-6 2.7-6 6V215c0 3.3 2.8 6 6 6h1c3.3 0 6-2.7 6-6" id="Fill-144" fill="#A5AAAC"/></g></g></g></g></g></g></svg>